<svg id="Capa_1" data-name="Capa 1" xmlns="http://www.w3.org/2000/svg" viewBox="0 0 1022.3 311.73"><defs><style>.cls-1,.cls-2{fill:currentColor;}.cls-1{stroke:currentColor;strokeLinecap:round;strokeLinejoin:round;strokeWidth:2.72px;}.cls-3{fill:#009779;}.cls-4{fill:#9c9b9b;}</style></defs><path className="cls-1" d="M132.92,436.86a48.63,48.63,0,0,1,13.31,2.82,38.2,38.2,0,0,1,12,7.75,36.64,36.64,0,0,1,8,11.54,34.07,34.07,0,0,1,3,13.94,33.69,33.69,0,0,1-3,14.07,36.81,36.81,0,0,1-8,11.41,38.47,38.47,0,0,1-12,7.75A38.9,38.9,0,0,1,131.37,509H104.26l.06,26.66h27.05a66.32,66.32,0,0,0,25.48-4.93,67.93,67.93,0,0,0,20.79-13.34,62.16,62.16,0,0,0,14.05-19.9,59.81,59.81,0,0,0,5.14-24.57,58.79,58.79,0,0,0-5.15-24.44,64.29,64.29,0,0,0-14-19.88,66.56,66.56,0,0,0-46.28-18.42h-7.85c2.39,8.47,3,14.82,2.88,27.11A28.28,28.28,0,0,1,132.92,436.86Z" transform="translate(-23.79 -383.88)"/><rect className="cls-2" x="203.5" y="24.94" width="30.3" height="204.08" rx="1.36"/><path className="cls-2" d="M256.24,410.18V611.54H228.65V410.18h27.59m0-2.72H228.65a2.71,2.71,0,0,0-2.71,2.72V611.54a2.71,2.71,0,0,0,2.71,2.71h27.59a2.71,2.71,0,0,0,2.72-2.71V410.18a2.72,2.72,0,0,0-2.72-2.72Z" transform="translate(-23.79 -383.88)"/><path className="cls-2" d="M352.87,612.89a68.85,68.85,0,0,1-22.93-3.84,65.76,65.76,0,0,1-19.56-10.82A68.66,68.66,0,0,1,295.77,582a58.33,58.33,0,0,1-8.21-20.42l-.37-1.88a1.36,1.36,0,0,1,1.33-1.62h28.33a1.36,1.36,0,0,1,1.27.89l.38,1a36.3,36.3,0,0,0,13.1,16.91,35.57,35.57,0,0,0,21.25,6.67A36.34,36.34,0,0,0,367,580.78a37.3,37.3,0,0,0,11.47-7.48,35.44,35.44,0,0,0,7.75-11,32.38,32.38,0,0,0,2.83-13.51,18.64,18.64,0,0,0-3.4-10.57,25,25,0,0,0-8.17-7.1,42.31,42.31,0,0,0-11.15-4.1,55.68,55.68,0,0,0-11.73-1.35,116.6,116.6,0,0,1-23.24-3.06,84,84,0,0,1-17.23-6.17,47.7,47.7,0,0,1-12.38-8.61,58.42,58.42,0,0,1-7.91-9.54A48.86,48.86,0,0,1,286.33,473a60.22,60.22,0,0,1,5.26-25.06,65.69,65.69,0,0,1,14.33-20.3A68.48,68.48,0,0,1,327,413.86a66.51,66.51,0,0,1,25.87-5,69,69,0,0,1,22.91,3.84,65.4,65.4,0,0,1,34,27.12,64.87,64.87,0,0,1,8.32,20.31l.44,1.92a1.37,1.37,0,0,1-1.33,1.66H388.82a1.35,1.35,0,0,1-1.28-.91l-.37-1.06a34.52,34.52,0,0,0-12.78-16.85,36,36,0,0,0-21.54-6.66,37.33,37.33,0,0,0-25.64,10.22,35.67,35.67,0,0,0-7.75,11,32.38,32.38,0,0,0-2.83,13.51c.17,5.74,2.78,10.78,8,15.35s13.45,7.35,24.31,8.06c11.68.19,21.75,1.56,29.83,4.09a71,71,0,0,1,20.11,9.48,47,47,0,0,1,12.24,12.25,52.89,52.89,0,0,1,6.07,12.15,37.78,37.78,0,0,1,2.05,9.86l0,.76c.08,2,.12,3,.13,3.25.19,4.57-.58,10.46-2.3,17.48a60.64,60.64,0,0,1-10.19,21.13,67.17,67.17,0,0,1-20.61,18.07c-8.75,5.15-20,7.86-33.39,8Z" transform="translate(-23.79 -383.88)"/><path className="cls-2" d="M352.85,410.18a67.58,67.58,0,0,1,22.46,3.76,64.08,64.08,0,0,1,33.34,26.56,64.07,64.07,0,0,1,8.15,19.89l.43,1.92H388.82l-.37-1.06a35.82,35.82,0,0,0-13.26-17.5,37.39,37.39,0,0,0-22.34-6.92,38.63,38.63,0,0,0-26.58,10.6,37.24,37.24,0,0,0-8,11.41,33.72,33.72,0,0,0-3,14.07c.18,6.17,2.94,11.53,8.45,16.38s13.94,7.66,25.11,8.38c11.6.19,21.55,1.55,29.51,4A69.69,69.69,0,0,1,398.07,511,46,46,0,0,1,410,522.88a52.05,52.05,0,0,1,5.92,11.84,36.62,36.62,0,0,1,2,9.49c.09,2.45.14,3.68.15,4,.19,4.47-.57,10.24-2.26,17.14a59.34,59.34,0,0,1-10,20.65,65.86,65.86,0,0,1-20.2,17.7c-8.54,5-19.55,7.68-32.72,7.87a67.48,67.48,0,0,1-22.48-3.77,64.45,64.45,0,0,1-19.16-10.6,67.44,67.44,0,0,1-14.32-15.95,56.92,56.92,0,0,1-8-19.94l-.37-1.88h28.33l.38,1A37.64,37.64,0,0,0,330.81,578a36.87,36.87,0,0,0,22,6.92,37.55,37.55,0,0,0,14.7-2.85,38.39,38.39,0,0,0,11.88-7.75,37,37,0,0,0,8.05-11.41,33.69,33.69,0,0,0,2.95-14.07,20.09,20.09,0,0,0-3.66-11.38,26.71,26.71,0,0,0-8.62-7.48,43.38,43.38,0,0,0-11.51-4.24,57,57,0,0,0-12-1.38,114.5,114.5,0,0,1-22.91-3,82.86,82.86,0,0,1-16.95-6.06,46.71,46.71,0,0,1-12-8.36,57.44,57.44,0,0,1-7.72-9.32A47.45,47.45,0,0,1,287.69,473a58.78,58.78,0,0,1,5.14-24.47,64.29,64.29,0,0,1,14-19.88,67.16,67.16,0,0,1,20.65-13.49,65.3,65.3,0,0,1,25.34-4.93m0-2.72a67.81,67.81,0,0,0-26.39,5.15,69.62,69.62,0,0,0-21.48,14,66.8,66.8,0,0,0-14.62,20.71A61.46,61.46,0,0,0,285,473V473a50.21,50.21,0,0,0,7.73,26,59.52,59.52,0,0,0,8.11,9.81,49.34,49.34,0,0,0,12.73,8.86,85.51,85.51,0,0,0,17.51,6.27A118.53,118.53,0,0,0,354.5,527h.12a53.61,53.61,0,0,1,11.44,1.32,40.9,40.9,0,0,1,10.79,4,23.91,23.91,0,0,1,7.74,6.72,17.4,17.4,0,0,1,3.12,9.81,31.28,31.28,0,0,1-2.7,12.9,34.4,34.4,0,0,1-7.46,10.57,36,36,0,0,1-11.06,7.21,34.91,34.91,0,0,1-13.64,2.64,34.2,34.2,0,0,1-20.45-6.41,35,35,0,0,1-12.62-16.28l-.38-1a2.74,2.74,0,0,0-2.55-1.77H288.52a2.71,2.71,0,0,0-2.66,3.24l.36,1.88a59.65,59.65,0,0,0,8.41,20.89,69.72,69.72,0,0,0,14.9,16.59,67,67,0,0,0,20,11.05,70.23,70.23,0,0,0,23.38,3.92c13.69-.19,25.15-3,34.1-8.23a68.75,68.75,0,0,0,21-18.45A62.12,62.12,0,0,0,418.4,566c1.75-7.13,2.53-13.14,2.33-17.86,0-.31,0-1.27-.11-3l0-1a38.78,38.78,0,0,0-2.12-10.23,54.12,54.12,0,0,0-6.23-12.48,48.73,48.73,0,0,0-12.57-12.61,72.84,72.84,0,0,0-20.5-9.67c-8.2-2.56-18.36-3.95-30.22-4.15-10.52-.69-18.4-3.29-23.43-7.71s-7.35-9-7.52-14.38a30.93,30.93,0,0,1,2.7-12.9,34.57,34.57,0,0,1,7.46-10.58,36,36,0,0,1,24.7-9.84A34.72,34.72,0,0,1,373.6,446a33.29,33.29,0,0,1,12.29,16.19l.37,1.06a2.69,2.69,0,0,0,2.56,1.83h28.41a2.7,2.7,0,0,0,2.65-3.31l-.43-1.93a66.41,66.41,0,0,0-8.5-20.73,66.75,66.75,0,0,0-34.74-27.68,70.37,70.37,0,0,0-23.36-3.92Z" transform="translate(-23.79 -383.88)"/><path className="cls-2" d="M517.13,612.89a66.52,66.52,0,0,1-25.86-5,68.5,68.5,0,0,1-21.07-13.77,65.53,65.53,0,0,1-14.33-20.29,60.18,60.18,0,0,1-5.26-25V472.91a60.17,60.17,0,0,1,5.26-25,65.45,65.45,0,0,1,14.33-20.3,68.41,68.41,0,0,1,21.07-13.76,66.42,66.42,0,0,1,25.86-5,67.75,67.75,0,0,1,47.22,18.8,65.69,65.69,0,0,1,14.33,20.3,60,60,0,0,1,5.27,25V548.8a60.1,60.1,0,0,1-5.27,25,65.67,65.67,0,0,1-14.32,20.29,67.8,67.8,0,0,1-47.23,18.8Zm0-174.7a37.33,37.33,0,0,0-25.64,10.22,35.27,35.27,0,0,0-7.74,11.12,32.54,32.54,0,0,0-2.84,13.38V548.8a32.55,32.55,0,0,0,2.84,13.39,35.18,35.18,0,0,0,7.74,11.11,36.93,36.93,0,0,0,11.6,7.48,38.18,38.18,0,0,0,28.38,0,37,37,0,0,0,11.6-7.47,35.22,35.22,0,0,0,7.74-11.11,32.68,32.68,0,0,0,2.84-13.39V472.91a32.74,32.74,0,0,0-2.84-13.38,35,35,0,0,0-7.75-11.12,36.92,36.92,0,0,0-11.59-7.47A37.56,37.56,0,0,0,517.13,438.19Z" transform="translate(-23.79 -383.88)"/><path className="cls-2" d="M517.13,410.18a66.44,66.44,0,0,1,46.28,18.42,64.12,64.12,0,0,1,14,19.88,58.71,58.71,0,0,1,5.15,24.43V548.8a58.72,58.72,0,0,1-5.15,24.44,64.29,64.29,0,0,1-14,19.87,66.39,66.39,0,0,1-46.28,18.43,65,65,0,0,1-25.34-4.94,66.91,66.91,0,0,1-20.65-13.49,64.29,64.29,0,0,1-14-19.87A58.85,58.85,0,0,1,452,548.8V472.91a58.8,58.8,0,0,1,5.15-24.43,64.12,64.12,0,0,1,14-19.88,67.28,67.28,0,0,1,20.65-13.49,65.3,65.3,0,0,1,25.34-4.93m.13,174.69A38.87,38.87,0,0,0,532,582a38.47,38.47,0,0,0,12-7.75,36.62,36.62,0,0,0,8-11.54,34,34,0,0,0,3-13.94V472.91a34.1,34.1,0,0,0-3-13.94,36.73,36.73,0,0,0-8-11.54,38.47,38.47,0,0,0-12-7.75,38.9,38.9,0,0,0-14.86-2.85,38.63,38.63,0,0,0-26.58,10.6,36.46,36.46,0,0,0-8,11.54,34,34,0,0,0-3,13.94V548.8a33.88,33.88,0,0,0,3,13.94,36.34,36.34,0,0,0,8,11.54,38.18,38.18,0,0,0,12,7.75,38.76,38.76,0,0,0,14.69,2.84m-.13-177.41a67.81,67.81,0,0,0-26.39,5.15,69.62,69.62,0,0,0-21.48,14,66.88,66.88,0,0,0-14.63,20.71,61.56,61.56,0,0,0-5.38,25.56V548.8a61.56,61.56,0,0,0,5.38,25.56,66.76,66.76,0,0,0,14.63,20.71,69.59,69.59,0,0,0,21.48,14,67.92,67.92,0,0,0,26.39,5.14,69.1,69.1,0,0,0,48.17-19.18,66.9,66.9,0,0,0,14.62-20.71,61.47,61.47,0,0,0,5.39-25.56V472.91a61.47,61.47,0,0,0-5.39-25.56,67.13,67.13,0,0,0-14.62-20.71,69.22,69.22,0,0,0-48.17-19.18Zm.13,174.69a36.31,36.31,0,0,1-13.66-2.63,35.65,35.65,0,0,1-11.17-7.2A33.73,33.73,0,0,1,485,561.64a31.26,31.26,0,0,1-2.72-12.84V472.91A31.25,31.25,0,0,1,485,460.08a33.83,33.83,0,0,1,7.44-10.69,36,36,0,0,1,24.7-9.84A36.07,36.07,0,0,1,531,442.2a35.58,35.58,0,0,1,11.17,7.19,33.81,33.81,0,0,1,7.45,10.69,31.41,31.41,0,0,1,2.72,12.83V548.8a31.34,31.34,0,0,1-2.72,12.83,34,34,0,0,1-7.44,10.69,35.82,35.82,0,0,1-11.18,7.2,36.35,36.35,0,0,1-13.69,2.63Z" transform="translate(-23.79 -383.88)"/><path className="cls-2" d="M718,612.89a1.33,1.33,0,0,1-1.19-.72L643.28,473.92V611.54a1.35,1.35,0,0,1-1.36,1.35H614.34a1.35,1.35,0,0,1-1.36-1.35V410.18a1.36,1.36,0,0,1,1.36-1.36h26.95a1.36,1.36,0,0,1,1.2.71L716,547V410.18a1.36,1.36,0,0,1,1.36-1.36H745a1.36,1.36,0,0,1,1.36,1.36V611.54a1.35,1.35,0,0,1-1.36,1.35Z" transform="translate(-23.79 -383.88)"/><path className="cls-2" d="M745,410.18V611.54H718L641.92,468.47V611.54H614.34V410.18h26.95l.45.83,75.63,141.41V410.18H745m0-2.72H717.37a2.71,2.71,0,0,0-2.71,2.72v131.4L644.13,409.73l-.45-.84a2.71,2.71,0,0,0-2.39-1.43H614.34a2.72,2.72,0,0,0-2.72,2.72V611.54a2.71,2.71,0,0,0,2.72,2.71h27.58a2.71,2.71,0,0,0,2.72-2.71V479.37l71,133.44a2.7,2.7,0,0,0,2.39,1.44h27a2.71,2.71,0,0,0,2.72-2.71V410.18a2.72,2.72,0,0,0-2.72-2.72Z" transform="translate(-23.79 -383.88)"/><path className="cls-2" d="M881.55,612.89a1.36,1.36,0,0,1-1.32-1l-18.29-74.57H821.19l-18.88,74.58a1.35,1.35,0,0,1-1.31,1H776.3a1.35,1.35,0,0,1-1.33-1.66l46.66-201.36a1.35,1.35,0,0,1,1.32-1.05h38.13a1.35,1.35,0,0,1,1.32,1.05l46.66,201.36a1.35,1.35,0,0,1-1.33,1.66Zm-26.93-105-12.8-52.78-13.26,52.78Z" transform="translate(-23.79 -383.88)"/><path className="cls-2" d="M861.08,410.18l46.65,201.36H881.55L863,535.93H820.13L801,611.54H776.3L823,410.18h38.13m-34.27,99.1h29.54l-14.51-59.81-15,59.81m34.27-101.82H823a2.71,2.71,0,0,0-2.64,2.1L773.65,610.92a2.71,2.71,0,0,0,2.65,3.33H801a2.71,2.71,0,0,0,2.63-2l18.62-73.55h38.63l18,73.53a2.72,2.72,0,0,0,2.64,2.07h26.18a2.71,2.71,0,0,0,2.65-3.33L863.73,409.56a2.73,2.73,0,0,0-2.65-2.1Zm-30.78,99.1,11.49-45.75,11.1,45.75Z" transform="translate(-23.79 -383.88)"/><path className="cls-1" d="M992.42,569.61V534.67l52.31-124.49h-30.82l-35.43,90.14-35.43-90.14H912.51l52.32,124.49v76.87h15.48V591.18s-.08-6.82,2.41-11.93C984.45,575.69,988.15,571.36,992.42,569.61Z" transform="translate(-23.79 -383.88)"/><polygon className="cls-1" points="70 101.75 70 227.66 42.41 227.66 42.41 101.35 70 101.75"/><path className="cls-3" d="M116.64,475.34l-47-.35c-31.46,1.08-45.56-10.85-45.56-45.56l-.33-45.17L74,383.88c45.56,0,42.3,46.89,42.3,53.15Z" transform="translate(-23.79 -383.88)"/><path className="cls-3" d="M986.6,612.61l.16-20.38c-.48-13.66,4.73-19.78,19.87-19.78l19.7-.14.17,21.8c0,19.77-20.46,18.36-23.18,18.36Z" transform="translate(-23.79 -383.88)"/><path className="cls-4" d="M190.65,695.12V667h5.51v28.15Z" transform="translate(-23.79 -383.88)"/><path className="cls-4" d="M240.31,695.12V667h5.75l-.24,4.87v23.32Zm19.5,0L241.6,670l4.46-3,18.14,25Zm0,0V667h5.47v28.15Z" transform="translate(-23.79 -383.88)"/><path className="cls-4" d="M309.41,695.12V667h5.51v28.15Zm14.19-6.75-14-20.31,2.57-.76,3.18-.33,11,16.29Zm0,0-2.77-5.11,11-16.29,3.17.33,2.5.68Zm8.69,6.75V667h5.47v28.15Z" transform="translate(-23.79 -383.88)"/><path className="cls-4" d="M394.86,695.61a15,15,0,0,1-7.54-1.87,13.43,13.43,0,0,1-5.13-5.15,16.29,16.29,0,0,1,0-15.08,13.28,13.28,0,0,1,5.09-5.13,16,16,0,0,1,15,0,13.51,13.51,0,0,1,5.08,5.15,15,15,0,0,1,1.85,7.54,15.15,15.15,0,0,1-1.83,7.5,13.46,13.46,0,0,1-5.06,5.15A14.66,14.66,0,0,1,394.86,695.61Zm0-5a8.3,8.3,0,0,0,4.52-1.23,8.43,8.43,0,0,0,3.06-3.36,10.56,10.56,0,0,0,1.1-4.9,10.45,10.45,0,0,0-1.12-5,8.66,8.66,0,0,0-3.1-3.36,8.63,8.63,0,0,0-12.22,3.36,10.33,10.33,0,0,0-1.13,5,10.21,10.21,0,0,0,1.13,4.9,8.39,8.39,0,0,0,3.13,3.36A8.68,8.68,0,0,0,394.86,690.58Z" transform="translate(-23.79 -383.88)"/><path className="cls-4" d="M451.69,695.12V667h5.39v28.15Zm2-11.9v-4.79h7.64a4.15,4.15,0,0,0,2.86-.92,3.3,3.3,0,0,0,1-2.61,3.2,3.2,0,0,0-1.16-2.64,4.74,4.74,0,0,0-3.18-.9h-7.2V667l7.52-.08a13.19,13.19,0,0,1,5.07.91,7.39,7.39,0,0,1,3.38,2.69,7.84,7.84,0,0,1,1.21,4.45,6,6,0,0,1-1.47,3.94,9.94,9.94,0,0,1-4.1,2.81,16.56,16.56,0,0,1-6.14,1Zm.2,11.9v-4.86H462a4.52,4.52,0,0,0,3.09-1,3.31,3.31,0,0,0,1.13-2.63A3.35,3.35,0,0,0,465,683.9a5.11,5.11,0,0,0-3.41-1H453.9v-4.26l4.87.08a24.35,24.35,0,0,1,6.88.86,9.63,9.63,0,0,1,4.56,2.68,6.84,6.84,0,0,1,1.63,4.78,7.87,7.87,0,0,1-1.17,4.38,7.24,7.24,0,0,1-3.25,2.74,12,12,0,0,1-4.91.92Z" transform="translate(-23.79 -383.88)"/><path className="cls-4" d="M514.55,695.12V667h5.51v28.15Z" transform="translate(-23.79 -383.88)"/><path className="cls-4" d="M564.2,695.12V667h5.51v28.15Zm3.54,0v-5H582.1v5Z" transform="translate(-23.79 -383.88)"/><path className="cls-4" d="M623.42,695.12V667h5.51v28.15Z" transform="translate(-23.79 -383.88)"/><path className="cls-4" d="M670.13,695.12,681.23,667h5.5L676,695.12Zm5.22-6.19v-4.86H693v4.86Zm17,6.19L681.59,667h5.51l11.1,28.15Z" transform="translate(-23.79 -383.88)"/><path className="cls-4" d="M739.37,695.12V667h5.51v28.15Zm4.86-10v-5h5.63a4.69,4.69,0,0,0,2.24-.52,4.13,4.13,0,0,0,1.57-1.45,3.89,3.89,0,0,0,.58-2.09,3.69,3.69,0,0,0-1.31-2.93,5,5,0,0,0-3.36-1.13h-5.35v-5l5.59,0a11.06,11.06,0,0,1,5.27,1.15,9,9,0,0,1,3.58,3.24,8.7,8.7,0,0,1,1.29,4.74,8.47,8.47,0,0,1-1.35,4.73,9,9,0,0,1-3.68,3.21,11.78,11.78,0,0,1-5.31,1.15Zm10.62,10-6.51-11.3,4.22-3,8.53,14.31Z" transform="translate(-23.79 -383.88)"/><path className="cls-4" d="M803.1,695.12V667h5.51v28.15Z" transform="translate(-23.79 -383.88)"/><path className="cls-4" d="M849.8,695.12,860.9,667h5.51l-10.78,28.15Zm5.23-6.19v-4.86h17.66v4.86Zm17,6.19L861.26,667h5.51l11.1,28.15Z" transform="translate(-23.79 -383.88)"/></svg>